# xmcd CD database file
#
# Track frame offsets:
#	150
#	29640
#	62685
#	96087
#	104879
#	136627
#	164383
#	190522
#	209284
#	237265
#
# Disc length: 3525 seconds
#
# Revision: 0
# Processed by: cddbd v1.5.1PL2 Copyright (c) Steve Scherf et al.
# Submitted via: CDex 1.51
#
DISCID=870dc30a
DTITLE=Various Artist - Exhibition3 CD3 (Mixed by John Bryan)
DYEAR=2005
DGENRE=Trance
TTITLE0=Mike Shiver - Feelings (Alex Arestegui Shoreline Mix)
TTITLE1=Tilt - New Day (Gift Ambient Mix)
TTITLE2=Tilt - Electronic Poledancer (Static Flux Ambient Mix)
TTITLE3=Solar Stone - Seven Cities (John Bryan String Interlude)
TTITLE4=U&K - Yellow Fields
TTITLE5=Vorontsov and Dorohov - Lost Angel
TTITLE6=Static Flux - Intake (Ambient Mix)
TTITLE7=Lustral - The Price We Pay For Love (Ambient Mix)
TTITLE8=Benz and MD - Visceral (Greenwave Atmo Ambient Mix)
TTITLE9=Keenan vs. Anderson - Futurstep (Gift Ambient Mix)
EXTD=YEAR: 2005
EXTT0=
EXTT1=
EXTT2=
EXTT3=
EXTT4=
EXTT5=
EXTT6=
EXTT7=
EXTT8=
EXTT9=
PLAYORDER=
